<?xml version="1.0" encoding="utf-8"?>
<!-- Generator: Adobe Illustrator 21.0.0, SVG Export Plug-In . SVG Version: 6.00 Build 0)  -->
<svg version="1.1" id="Layer_1" xmlns="http://www.w3.org/2000/svg" xmlns:xlink="http://www.w3.org/1999/xlink" x="0px" y="0px"
	 viewBox="0 0 2000 2000" style="enable-background:new 0 0 2000 2000;" xml:space="preserve">
<style type="text/css">
	.st0{fill:#BE1E2D;}
</style>
<g>
	<g>
		<path class="st0" d="M679.6,1131.9c0,1.3-0.2,2.1-0.6,2.5c-0.4,0.4-1.2,0.5-2.3,0.5h-16.9c-1.2,0-2-0.2-2.4-0.5
			c-0.4-0.4-0.6-1.2-0.6-2.5v-42.6H644v47.1c0,3.4,0.7,5.9,2.1,7.5c1.4,1.6,4,2.4,7.6,2.4h28.4c3.6,0,6.1-0.8,7.5-2.4
			c1.4-1.6,2.1-4.1,2.1-7.5v-47.1h-12.3V1131.9z"/>
		<path class="st0" d="M755.5,1112.6h-22.8c-0.8,0-1.4-0.2-1.7-0.5c-0.3-0.3-0.5-0.9-0.5-1.9v-7.5c0-1,0.2-1.7,0.5-2.1
			c0.3-0.4,0.9-0.6,1.8-0.6H763v-10.9h-35.5c-3.7,0-6.3,0.8-7.7,2.4c-1.4,1.6-2.1,4.1-2.1,7.5v14.7c0,2.5,0.6,4.5,1.9,5.9
			c1.3,1.4,3.3,2.1,6.1,2.1h22.5c1,0,1.7,0.2,2.1,0.5c0.4,0.3,0.5,1,0.5,1.9v7.9c0,1.1-0.2,1.8-0.5,2.2c-0.4,0.4-1.1,0.6-2.1,0.6
			h-30.4v11.1h36.2c3.7,0,6.2-0.8,7.6-2.4c1.4-1.6,2.1-4.1,2.1-7.5v-15.6c0-2.5-0.6-4.5-1.9-5.9
			C760.4,1113.4,758.3,1112.6,755.5,1112.6z"/>
		<path class="st0" d="M862.3,1089.3h-32.9v8.6v2.6v45.8h32.9c5.1,0,8.8-1.2,11.3-3.7c2.5-2.5,3.7-6.1,3.7-10.9v-27.9
			c0-4.8-1.2-8.4-3.7-10.9C871.2,1090.5,867.4,1089.3,862.3,1089.3z M864.5,1129.7c0,1.8-0.4,3.2-1.2,4.1c-0.8,0.9-1.9,1.4-3.4,1.4
			H842v-34.7H860c3,0,4.6,1.8,4.6,5.5V1129.7z"/>
		<path class="st0" d="M940.9,1089.2h-28.4c-3.7,0-6.2,0.8-7.6,2.4c-1.4,1.6-2.1,4.1-2.1,7.5v37.2c0,3.4,0.7,5.9,2.1,7.5
			c1.4,1.6,3.9,2.4,7.6,2.4h28.4c3.6,0,6.1-0.8,7.5-2.4c1.4-1.6,2.1-4.1,2.1-7.5v-37.2c0-3.4-0.7-5.9-2.1-7.5
			C947,1090,944.5,1089.2,940.9,1089.2z M937.8,1132c0,1-0.2,1.7-0.7,2.2c-0.5,0.5-1.4,0.7-2.7,0.7h-15.9c-1.1,0-1.9-0.2-2.3-0.7
			c-0.4-0.4-0.6-1.2-0.6-2.2v-28.4c0-1.3,0.2-2.2,0.6-2.6c0.4-0.4,1.1-0.7,2.3-0.7h15.9c1.3,0,2.3,0.2,2.7,0.7
			c0.5,0.5,0.7,1.3,0.7,2.6V1132z"/>
		<polygon class="st0" points="973.7,1100.4 987.6,1100.4 987.6,1146.3 1000.4,1146.3 1000.4,1100.4 1014.3,1100.4 1014.3,1089.3 
			973.7,1089.3 		"/>
		<path class="st0" d="M1107.7,1089.2h-6.9v15.5h-9.4v-15.5h-6.9v15.5h-8.3v6.1h8.3v13.9h-8.3v6.1h8.3v15.5h6.9v-15.5h9.4v15.5h6.9
			v-15.5h8.2v-6.1h-8.2v-13.9h8.2v-6.1h-8.2V1089.2z M1100.8,1124.7h-9.4v-13.9h9.4V1124.7z"/>
		<path class="st0" d="M1216.3,1089.2h-26c-3.5,0-6.1,0.8-7.6,2.4c-1.5,1.6-2.3,4-2.3,7.3v7.9h11.5v-4.1c0-1.3,0.2-2.2,0.6-2.6
			c0.4-0.4,1.2-0.7,2.4-0.7h16.1c1.3,0,2.1,0.2,2.5,0.7c0.4,0.5,0.6,1.3,0.6,2.6v7.6c0,1.2-0.2,2-0.6,2.5c-0.4,0.5-1.2,0.8-2.4,0.8
			h-20.3c-2,0-3.6,0.2-5,0.6c-1.3,0.4-2.4,1-3.2,1.9c-0.8,0.9-1.3,2-1.7,3.4c-0.3,1.4-0.5,3-0.5,4.9v21.9h45.4v-10.7h-33.4v-8.9
			c0-1.5,0.2-2.5,0.6-3c0.4-0.5,1.2-0.7,2.3-0.7h21.6c3.3,0,5.6-0.8,6.9-2.3c1.3-1.5,2-3.9,2-7v-14.5c0-3.4-0.7-5.9-2.1-7.5
			C1222.4,1090,1219.9,1089.2,1216.3,1089.2z"/>
		<path class="st0" d="M1289.6,1111.1h-25.5v-11h31.9v-10.9h-43.9v31.3h30.8c1,0,1.7,0.2,2.1,0.6c0.4,0.4,0.5,1.1,0.5,2.2v9.5
			c0,1.1-0.2,1.9-0.5,2.3c-0.4,0.4-1.2,0.6-2.5,0.6h-16c-1.1,0-1.8-0.2-2.2-0.6c-0.3-0.4-0.5-1.2-0.5-2.3v-5.1h-11.8v8.8
			c0,3.3,0.7,5.7,2.1,7.3c1.4,1.6,3.9,2.4,7.5,2.4h26.2c3.7,0,6.2-0.8,7.6-2.4c1.4-1.6,2.1-4.1,2.1-7.5v-17.1c0-2.5-0.6-4.5-1.9-5.9
			C1294.4,1111.8,1292.4,1111.1,1289.6,1111.1z"/>
		<path class="st0" d="M1361.1,1089.2h-16.2l-23.3,36.2v9.9h28.3v11h11.1v-11h7.6v-9.8h-7.6V1089.2z M1350,1125.5h-16.9l16.9-25.7
			V1125.5z"/>
		<path class="st0" d="M1427.9,1089.3h-25.8c-3.7,0-6.2,0.8-7.6,2.4c-1.4,1.6-2.1,4.1-2.1,7.5v37.1c0,3.4,0.7,5.9,2.1,7.5
			c1.4,1.6,3.9,2.4,7.6,2.4h26c3.7,0,6.2-0.8,7.6-2.4c1.4-1.6,2.1-4.1,2.1-7.5v-15.6c0-2.5-0.6-4.5-1.9-5.9
			c-1.2-1.4-3.3-2.1-6.1-2.1h-26v-9.9c0-1.3,0.2-2.1,0.6-2.6c0.4-0.4,1.2-0.6,2.4-0.6h16.1c1.3,0,2.2,0.2,2.7,0.6
			c0.4,0.4,0.7,1.3,0.7,2.6v4.1h11.5v-7.9c0-3.2-0.8-5.6-2.3-7.2C1434.1,1090.1,1431.5,1089.3,1427.9,1089.3z M1423.8,1121.4
			c1.1,0,1.9,0.2,2.3,0.6c0.4,0.4,0.6,1.1,0.6,2.1v7.8c0,1.5-0.2,2.4-0.6,2.9c-0.4,0.5-1.2,0.8-2.4,0.8H1407c-1.1,0-1.9-0.3-2.3-0.8
			c-0.4-0.5-0.6-1.5-0.6-2.9v-10.5H1423.8z"/>
		<polygon class="st0" points="1461,1100.1 1468.7,1100.1 1468.7,1146.3 1480.8,1146.3 1480.8,1089.2 1461,1089.2 		"/>
		<path class="st0" d="M1543,1089.1h-26.8c-3.7,0-6.2,0.8-7.6,2.4c-1.4,1.6-2.1,4.1-2.1,7.5v37.2c0,3.4,0.7,5.9,2.1,7.5
			c1.4,1.6,3.9,2.4,7.6,2.4h26.8c3.7,0,6.2-0.8,7.6-2.4c1.4-1.6,2.1-4.1,2.1-7.5v-37.2c0-3.4-0.7-5.9-2.1-7.5
			C1549.2,1090,1546.6,1089.1,1543,1089.1z M1540.6,1132c0,1-0.2,1.7-0.7,2.2c-0.5,0.5-1.4,0.7-2.7,0.7h-15.8
			c-1.1,0-1.9-0.2-2.3-0.7c-0.4-0.4-0.6-1.2-0.6-2.2v-28.5c0-1.2,0.2-2.1,0.6-2.6c0.4-0.5,1.2-0.7,2.3-0.7h15.8
			c1.3,0,2.3,0.2,2.7,0.7c0.5,0.5,0.7,1.4,0.7,2.7V1132z"/>
		<path class="st0" d="M1621.8,1091.7c-1.4-1.6-3.9-2.4-7.6-2.4h-26.1c-3.7,0-6.2,0.8-7.6,2.4c-1.4,1.6-2.1,4.1-2.1,7.5v15.8
			c0,2.5,0.6,4.5,1.9,5.9c1.3,1.4,3.3,2.1,6.1,2.1h26v9.5c0,1.3-0.2,2.1-0.6,2.6c-0.4,0.4-1.2,0.6-2.4,0.6h-16
			c-1.4,0-2.3-0.2-2.7-0.6c-0.4-0.4-0.6-1.3-0.6-2.6v-4.6h-11.6v8.6c0,3.3,0.7,5.7,2.2,7.3c1.5,1.6,4,2.4,7.6,2.4h26
			c3.7,0,6.2-0.8,7.6-2.4c1.4-1.6,2.1-4.1,2.1-7.5v-37.2C1623.9,1095.8,1623.2,1093.3,1621.8,1091.7z M1612.3,1114.2h-19.8
			c-1.1,0-1.9-0.2-2.3-0.6c-0.4-0.4-0.6-1.1-0.6-2.1v-8c0-1.5,0.2-2.4,0.6-2.9c0.4-0.5,1.2-0.8,2.4-0.8h16.8c1.1,0,1.9,0.3,2.3,0.8
			c0.4,0.5,0.6,1.5,0.6,2.9V1114.2z"/>
	</g>
	<g>
		<g>
			<path class="st0" d="M923.9,1230.6v-21.4l-8.6,21.4h-6.2l-8.8-21.4v21.4h-6.6v-35.3h8.6l9.8,24.6l10-24.6h8.3v35.3H923.9z"/>
			<path class="st0" d="M957.5,1230.6c-2.2,0-3.8-0.5-4.7-1.5c-0.9-1-1.3-2.6-1.3-4.6v-23c0-2.1,0.4-3.6,1.3-4.6
				c0.9-1,2.4-1.5,4.7-1.5h19.9v7h-16c-0.8,0-1.4,0.1-1.6,0.4c-0.2,0.3-0.4,0.8-0.4,1.6v17.2c0,0.7,0.1,1.2,0.4,1.5
				c0.2,0.3,0.8,0.4,1.6,0.4h16.1v7.1H957.5z"/>
			<path class="st0" d="M1042.1,1230.6v-9.6h-5.8v9.6h-4.3v-9.6h-5.1v-3.8h5.1v-8.6h-5.1v-3.8h5.1v-9.6h4.3v9.6h5.8v-9.6h4.3v9.6
				h5.1v3.8h-5.1v8.6h5.1v3.8h-5.1v9.6H1042.1z M1042.1,1208.6h-5.8v8.6h5.8V1208.6z"/>
			<path class="st0" d="M1107.6,1230.6c-2.2,0-3.8-0.5-4.7-1.5c-0.9-1-1.3-2.5-1.3-4.5v-8.4c0-1.3,0.4-2.3,1.2-2.8
				c0.8-0.6,1.8-0.9,3-1c-1.2-0.1-2.2-0.5-2.9-1.2c-0.7-0.7-1.1-1.7-1.1-3.2v-6.6c0-2,0.5-3.5,1.4-4.5c1-1,2.5-1.5,4.8-1.5h15.4
				c2.3,0,3.9,0.5,4.8,1.5c0.9,1,1.4,2.5,1.4,4.5v6.6c0,1.5-0.4,2.5-1.1,3.2c-0.7,0.7-1.7,1.1-2.9,1.2c1.2,0.1,2.2,0.4,3,1
				c0.8,0.6,1.2,1.5,1.2,2.8v8.4c0,2-0.4,3.5-1.3,4.5c-0.9,1-2.4,1.5-4.7,1.5H1107.6z M1122.6,1216.6c0-0.6-0.1-1-0.4-1.2
				c-0.3-0.2-0.8-0.3-1.5-0.3h-10c-0.7,0-1.2,0.1-1.5,0.3c-0.3,0.2-0.4,0.6-0.4,1.2v5.6c0,0.7,0.1,1.2,0.4,1.5
				c0.3,0.3,0.8,0.4,1.5,0.4h10c0.7,0,1.2-0.1,1.5-0.4c0.3-0.3,0.4-0.8,0.4-1.5V1216.6z M1122.5,1203.4c0-0.7-0.1-1.2-0.4-1.4
				c-0.3-0.2-0.7-0.4-1.4-0.4h-9.9c-0.7,0-1.2,0.1-1.4,0.4c-0.3,0.2-0.4,0.7-0.4,1.4v5c0,0.6,0.1,1,0.4,1.3c0.2,0.2,0.7,0.4,1.4,0.4
				h10c0.7,0,1.2-0.1,1.4-0.4c0.2-0.2,0.4-0.7,0.4-1.3V1203.4z"/>
			<path class="st0" d="M1156.9,1230.6c-2.2,0-3.8-0.5-4.7-1.5c-0.9-1-1.3-2.5-1.3-4.5v-8.4c0-1.3,0.4-2.3,1.2-2.8
				c0.8-0.6,1.8-0.9,3-1c-1.2-0.1-2.2-0.5-2.9-1.2c-0.7-0.7-1.1-1.7-1.1-3.2v-6.6c0-2,0.5-3.5,1.4-4.5c1-1,2.5-1.5,4.8-1.5h15.4
				c2.3,0,3.9,0.5,4.8,1.5c0.9,1,1.4,2.5,1.4,4.5v6.6c0,1.5-0.4,2.5-1.1,3.2c-0.7,0.7-1.7,1.1-2.9,1.2c1.2,0.1,2.2,0.4,3,1
				c0.8,0.6,1.2,1.5,1.2,2.8v8.4c0,2-0.4,3.5-1.3,4.5s-2.4,1.5-4.7,1.5H1156.9z M1171.9,1216.6c0-0.6-0.1-1-0.4-1.2
				c-0.3-0.2-0.8-0.3-1.5-0.3h-10c-0.7,0-1.2,0.1-1.5,0.3c-0.3,0.2-0.4,0.6-0.4,1.2v5.6c0,0.7,0.1,1.2,0.4,1.5
				c0.3,0.3,0.8,0.4,1.5,0.4h10c0.7,0,1.2-0.1,1.5-0.4c0.3-0.3,0.4-0.8,0.4-1.5V1216.6z M1171.8,1203.4c0-0.7-0.1-1.2-0.4-1.4
				c-0.3-0.2-0.7-0.4-1.4-0.4h-9.9c-0.7,0-1.2,0.1-1.4,0.4c-0.3,0.2-0.4,0.7-0.4,1.4v5c0,0.6,0.1,1,0.4,1.3c0.2,0.2,0.7,0.4,1.4,0.4
				h10c0.7,0,1.2-0.1,1.4-0.4c0.2-0.2,0.4-0.7,0.4-1.3V1203.4z"/>
			<path class="st0" d="M1206.1,1230.6c-2.3,0-3.8-0.5-4.7-1.5c-0.9-1-1.3-2.6-1.3-4.6v-23c0-2.1,0.4-3.6,1.3-4.6
				c0.9-1,2.4-1.5,4.7-1.5h16c2.2,0,3.8,0.5,4.7,1.5c0.9,1,1.4,2.5,1.4,4.5v4.9h-7.1v-2.6c0-0.8-0.1-1.3-0.4-1.6
				c-0.3-0.3-0.8-0.4-1.7-0.4h-10c-0.7,0-1.2,0.1-1.5,0.4c-0.2,0.3-0.4,0.8-0.4,1.6v6.2h16.1c1.7,0,3,0.4,3.8,1.3
				c0.8,0.9,1.1,2.1,1.1,3.7v9.7c0,2.1-0.4,3.6-1.3,4.6s-2.4,1.5-4.7,1.5H1206.1z M1221.3,1216.9c0-0.6-0.1-1.1-0.4-1.3
				c-0.2-0.3-0.7-0.4-1.4-0.4h-12.3v6.5c0,0.9,0.1,1.5,0.4,1.8c0.3,0.3,0.7,0.5,1.4,0.5h10.3c0.8,0,1.3-0.2,1.5-0.5
				c0.2-0.3,0.4-0.9,0.4-1.8V1216.9z"/>
			<path class="st0" d="M1254.7,1230.6c-2.2,0-3.8-0.5-4.7-1.5s-1.3-2.5-1.3-4.5v-5.5h7.3v3.1c0,0.7,0.1,1.2,0.4,1.5
				c0.3,0.3,0.8,0.4,1.5,0.4h10c0.7,0,1.2-0.1,1.5-0.4c0.3-0.3,0.4-0.8,0.4-1.5v-5.5c0-0.6-0.1-1-0.4-1.2c-0.3-0.2-0.8-0.3-1.5-0.3
				h-7.7v-5.2h7.7c0.7,0,1.2-0.1,1.4-0.4c0.2-0.2,0.4-0.7,0.4-1.3v-4.9c0-0.7-0.1-1.2-0.4-1.4s-0.7-0.4-1.4-0.4h-9.9
				c-0.7,0-1.2,0.1-1.4,0.4c-0.3,0.3-0.4,0.7-0.4,1.4v2.8h-7.1v-4.9c0-2,0.5-3.5,1.4-4.5c1-1,2.5-1.5,4.8-1.5h15.4
				c2.3,0,3.9,0.5,4.8,1.5c0.9,1,1.4,2.5,1.4,4.5v6.6c0,1.5-0.4,2.5-1.1,3.2c-0.7,0.7-1.7,1.1-2.9,1.2c1.2,0.1,2.2,0.4,3,1
				c0.8,0.6,1.2,1.5,1.2,2.8v8.4c0,2-0.4,3.5-1.3,4.5c-0.9,1-2.4,1.5-4.7,1.5H1254.7z"/>
			<path class="st0" d="M1303.3,1230.6c-2.2,0-3.8-0.5-4.7-1.5c-0.9-1-1.3-2.5-1.3-4.5v-5.5h7.3v3.1c0,0.7,0.1,1.2,0.4,1.5
				c0.3,0.3,0.8,0.4,1.5,0.4h10c0.7,0,1.2-0.1,1.5-0.4c0.3-0.3,0.4-0.8,0.4-1.5v-5.5c0-0.6-0.1-1-0.4-1.2c-0.3-0.2-0.8-0.3-1.5-0.3
				h-7.7v-5.2h7.7c0.7,0,1.2-0.1,1.4-0.4c0.2-0.2,0.4-0.7,0.4-1.3v-4.9c0-0.7-0.1-1.2-0.4-1.4s-0.7-0.4-1.4-0.4h-9.9
				c-0.7,0-1.2,0.1-1.4,0.4s-0.4,0.7-0.4,1.4v2.8h-7.1v-4.9c0-2,0.5-3.5,1.4-4.5c1-1,2.5-1.5,4.8-1.5h15.4c2.3,0,3.9,0.5,4.8,1.5
				c0.9,1,1.4,2.5,1.4,4.5v6.6c0,1.5-0.4,2.5-1.1,3.2c-0.7,0.7-1.7,1.1-2.9,1.2c1.2,0.1,2.2,0.4,3,1c0.8,0.6,1.2,1.5,1.2,2.8v8.4
				c0,2-0.4,3.5-1.3,4.5c-0.9,1-2.4,1.5-4.7,1.5H1303.3z"/>
			<path class="st0" d="M1351.9,1230.6c-2.2,0-3.8-0.5-4.7-1.5s-1.3-2.5-1.3-4.5v-5.5h7.3v3.1c0,0.7,0.1,1.2,0.4,1.5
				c0.3,0.3,0.8,0.4,1.5,0.4h10c0.7,0,1.2-0.1,1.5-0.4c0.3-0.3,0.4-0.8,0.4-1.5v-5.5c0-0.6-0.1-1-0.4-1.2c-0.3-0.2-0.8-0.3-1.5-0.3
				h-7.7v-5.2h7.7c0.7,0,1.2-0.1,1.4-0.4c0.2-0.2,0.4-0.7,0.4-1.3v-4.9c0-0.7-0.1-1.2-0.4-1.4s-0.7-0.4-1.4-0.4h-9.9
				c-0.7,0-1.2,0.1-1.4,0.4c-0.3,0.3-0.4,0.7-0.4,1.4v2.8h-7.1v-4.9c0-2,0.5-3.5,1.4-4.5c1-1,2.5-1.5,4.8-1.5h15.4
				c2.3,0,3.9,0.5,4.8,1.5c0.9,1,1.4,2.5,1.4,4.5v6.6c0,1.5-0.4,2.5-1.1,3.2c-0.7,0.7-1.7,1.1-2.9,1.2c1.2,0.1,2.2,0.4,3,1
				c0.8,0.6,1.2,1.5,1.2,2.8v8.4c0,2-0.4,3.5-1.3,4.5c-0.9,1-2.4,1.5-4.7,1.5H1351.9z"/>
		</g>
		<g>
			<rect x="720.6" y="1208.7" class="st0" width="143.5" height="8.4"/>
		</g>
		<g>
			<rect x="1403.8" y="1208.7" class="st0" width="143.5" height="8.4"/>
		</g>
	</g>
	<g>
		<path class="st0" d="M565.6,912.6v-32.6H376v141h66c11.1-9.4,25.5-21.3,40.3-32.6H414v-24.5h100.4v-28.3H414v-23H565.6z"/>
		<polygon class="st0" points="578,1021 579.2,1021 579.1,1019.8 		"/>
		<path class="st0" d="M969.9,818.9c-131.2,20.6-234.8,52-315.2,85.5l-22.2-24.3H581l36.9,40.5c-115.6,53.6-175.2,108.9-196.3,131.2
			h72c13.4-12,30.3-26.3,50.5-41.9l36.4,13.2c-9.2,9.2-18.3,18.7-27.1,28.6h76.6c15.5-21.8,32.1-41.6,49.4-59.8l20.7,29.1h51.8
			l-44.7-56.3C824.5,857.4,959.2,821.7,969.9,818.9z M878.3,840.8c-6.3,1.9-33.8,11-72.4,28.8l-5.1-3.4
			C825.5,856.8,851.3,848.3,878.3,840.8z M792.7,869.3l5.5,4c-5.6,2.6-11.4,5.4-17.4,8.4l-7.1-4.8
			C780,874.3,786.3,871.8,792.7,869.3z M763.8,881l7.6,5.5c-6.5,3.4-13.2,6.9-20,10.6l-9.5-6.5C749.1,887.4,756.4,884.2,763.8,881z
			 M591.7,1012.3l-35-12c19.3-14.5,41.3-29.7,65.7-45.2l22.3,11.8C626.9,980.7,609.1,995.8,591.7,1012.3z M657.1,957.5l-21.2-10.6
			c15.2-9.3,31.4-18.5,48.4-27.6L698,929C684.6,937.8,670.9,947.3,657.1,957.5z M697.7,912.1c10.6-5.4,21.4-10.8,32.6-16.1l10.1,7.2
			c-9.7,5.5-19.6,11.4-29.7,17.7L697.7,912.1z"/>
		<path class="st0" d="M918.2,891.8c-6.8-7.8-16.1-11.7-27.9-11.7h-40.1c-23.7,12.3-45.2,25.6-60.9,35.8h85.1
			c4.5,0,8.3,1.8,11.3,5.4c3,3.6,4.6,7.9,4.6,13c0,4.9-1.5,9.1-4.6,12.5c-3,3.4-6.6,5.2-10.6,5.2H768v69.1h38v-33.2h84.3
			c12,0,21.4-3.7,28-11.1c6.7-7.5,10-21.6,10-42.4C928.3,913.7,924.9,899.6,918.2,891.8z"/>
		<path class="st0" d="M1102.6,954.3c3.3-4.2,5-9,5-14.7v-23.8c0-9.8-3.7-18.2-11.2-25.3c-7.5-7-16.4-10.5-26.8-10.5H945.7v141.4h38
			v-35.8h73.9c3.6,0,6.5,2.9,8.7,8.7c2.2,5.8,3.2,14.8,3.2,27.1h38c0-18.5-1-32-3-40.5c-2-8.5-7.1-13.2-15.4-14.3
			C1094.7,962.6,1099.2,958.4,1102.6,954.3z M1064.5,944.4c-3.4,3.6-7.3,5.4-12,5.4h-68.9v-33.9h68.9c4.6,0,8.6,1.5,12,4.5
			c3.3,3,5,6.7,5,11C1069.5,936.5,1067.9,940.8,1064.5,944.4z"/>
		<path class="st0" d="M1270.5,912.6v-32.6H1126v141h144.5v-32.6h-106.4v-24.5h100.4v-28.3h-100.4v-23H1270.5z"/>
		<path class="st0" d="M1436.6,943.2c-6.8-5.9-16.1-8.8-27.7-8.8L1335,932c-3.8,0-6.1-0.9-6.9-2.8c-0.8-1.8-1.2-4.8-1.2-9
			c0-3.3,1-6.2,3-8.5c2-2.3,4.4-3.5,7.1-3.5h52.1c5.2,0,9.1,1.2,11.5,3.7c2.5,2.5,3.7,5.8,3.7,9.8h38v-13.5c0-7.8-2.9-14.5-8.7-20
			c-5.8-5.5-12.8-8.3-21.1-8.3H1327c-10.6,0-19.6,2.7-27,8.3c-7.4,5.5-11.1,12.1-11.1,19.9v21.9c0,10.1,3.1,18.3,9.3,24.6
			c6.2,6.3,15.7,9.4,28.8,9.4l68.4,2.4c3.8,0,6.9,1.3,9.6,3.7c2.5,2.5,3.9,5.4,3.9,8.9c0,3.8-1.8,7-5.5,9.7c-3.7,2.7-8.1,4-13.3,4
			h-52.1c-3,0-5.6-1.6-7.7-4.7c-2.1-3.1-3.1-6.8-3.1-11.2l-38.1-1.1v16.9c0,7.7,3.8,14.3,11.2,19.9c7.5,5.6,16.4,8.3,26.8,8.3h72.8
			c15.8,0,27.6-3.2,35.4-9.6c7.8-6.4,11.7-18.6,11.7-36.7C1446.9,959.6,1443.5,949.1,1436.6,943.2z"/>
		<path class="st0" d="M1613.7,943.2c-6.9-5.9-16.1-8.8-27.7-8.8l-73.9-2.3c-3.8,0-6.1-0.9-6.9-2.8c-0.8-1.8-1.2-4.8-1.2-9
			c0-3.3,1-6.2,3-8.5c2-2.3,4.4-3.5,7.2-3.5h52.1c5.2,0,9,1.2,11.5,3.7c2.4,2.5,3.7,5.8,3.7,9.8h38v-13.5c0-7.8-2.9-14.5-8.7-20
			c-5.8-5.5-12.8-8.3-21.1-8.3h-85.8c-10.6,0-19.6,2.7-27,8.3c-7.4,5.5-11.1,12.1-11.1,19.9v21.9c0,10.1,3.1,18.3,9.3,24.6
			c6.2,6.3,15.7,9.4,28.8,9.4l68.4,2.4c3.8,0,7,1.3,9.6,3.7c2.6,2.5,3.9,5.4,3.9,8.9c0,3.8-1.8,7-5.5,9.7c-3.7,2.7-8.1,4-13.4,4
			h-52.1c-3,0-5.6-1.6-7.7-4.7c-2.1-3.1-3.2-6.8-3.2-11.2l-38-1.1v16.9c0,7.7,3.7,14.3,11.2,19.9c7.5,5.6,16.4,8.3,26.8,8.3h72.8
			c15.8,0,27.6-3.2,35.4-9.6c7.8-6.4,11.7-18.6,11.7-36.7C1624,959.6,1620.6,949.1,1613.7,943.2z"/>
	</g>
	<g>
		<g>
			<path class="st0" d="M1055.3,771.4c-1.7-1.3-3.9-2-6.8-2H984l-19.3,72.1H985l6.5-24.2h17.3l9,24.2h23.8l-9.1-24.2h3.7
				c3.2,0,5.9-0.8,8-2.3c2.1-1.6,3.5-3.5,4.2-6l8.3-31.3C1057.5,774.9,1057,772.7,1055.3,771.4z M1030.4,801h-34.5l4.1-15.2h34.5
				L1030.4,801z"/>
			<path class="st0" d="M1145.8,769.4L1131,825h-34.7l14.8-55.6H1091l-16.8,62.8c-0.8,3-0.4,5.4,1.3,7c1.7,1.6,4.3,2.4,8,2.4h62.8
				l19.3-72.1H1145.8z"/>
			<path class="st0" d="M1257.2,785.8l4.3-16.4h-53.4c-2,0-3.7,0.2-5.2,0.7c-1.4,0.5-2.7,1.2-3.7,2c-1,0.8-1.8,1.7-2.4,2.7
				c-0.6,1-1,2-1.3,2.9c-0.4,1.4-0.9,3.3-1.5,5.6c-0.6,2.3-1.3,4.7-1.9,7.2c-0.7,2.5-1.4,5-2,7.4c-0.7,2.4-1.2,4.5-1.7,6.2
				c-0.7,2.4-0.4,4.5,0.7,6.2c1.1,1.7,3.4,2.5,6.7,2.5h38.2l-3.3,12.3h-47.8l-4.5,16.6h56.5c3.9,0,6.9-0.7,9.1-2.2
				c2.2-1.4,3.6-3.4,4.3-6c0.4-1.6,1-3.8,1.7-6.4c0.7-2.7,1.4-5.4,2.2-8.3c0.7-2.8,1.5-5.6,2.2-8.3c0.7-2.7,1.3-4.8,1.7-6.4
				c0.6-2.2,0.2-4-1.1-5.6c-1.3-1.6-3.6-2.3-6.8-2.3h-37.6l2.8-10.3H1257.2z"/>
			<path class="st0" d="M1356.5,785.8l4.3-16.4h-53.4c-2,0-3.7,0.2-5.2,0.7c-1.5,0.5-2.7,1.2-3.7,2s-1.8,1.7-2.4,2.7
				c-0.6,1-1,2-1.3,2.9c-0.4,1.4-0.9,3.3-1.5,5.6c-0.6,2.3-1.3,4.7-2,7.2c-0.7,2.5-1.3,5-2,7.4c-0.7,2.4-1.2,4.5-1.7,6.2
				c-0.7,2.4-0.4,4.5,0.7,6.2c1.1,1.7,3.3,2.5,6.7,2.5h38.2L1330,825h-47.8l-4.5,16.6h56.5c3.9,0,6.9-0.7,9.1-2.2
				c2.2-1.4,3.6-3.4,4.3-6c0.4-1.6,1-3.8,1.7-6.4c0.7-2.7,1.4-5.4,2.2-8.3c0.7-2.8,1.5-5.6,2.2-8.3c0.7-2.7,1.3-4.8,1.7-6.4
				c0.6-2.2,0.2-4-1.1-5.6c-1.3-1.6-3.6-2.3-6.8-2.3H1310l2.8-10.3H1356.5z"/>
			<path class="st0" d="M1454.6,785.8l4.3-16.4h-62.6l-19.3,72.1h62.6l4.5-16.6h-42.3l3.3-12.3h35.1l4.4-16.6h-35.1l2.8-10.3H1454.6
				z"/>
			<path class="st0" d="M1496.3,825.2l14.9-55.7H1491l-19.3,72.1h58.9l4.4-16.4H1496.3z"/>
			<path class="st0" d="M1585.3,825.2l14.9-55.7h-20.1l-19.3,72.1h58.9l4.4-16.4H1585.3z"/>
		</g>
	</g>
</g>
</svg>
